<svg xmlns="http://www.w3.org/2000/svg" width="200" height="50" viewBox="0 0 400 100">
  <defs>
    <style>
      .cls-1 {
        fill: #fff;
        fill-rule: evenodd;
      }
    </style>
  </defs>
  <path id="flix" class="cls-1" d="M234.1,73.441V55.689h15.213V48.183H234.1V43.239H257.65V30.431H219.68v43.01H234.1Zm65.343,0V60.634H275.454v-30.2H261.039v43.01h38.4Zm1.855,0h14.415V30.431H301.293v43.01Zm47.922-43.01-9.14,13.284-9.017-13.284H313.576l16.255,21.5-16.255,21.5h17.482l9.017-13.284,9.14,13.284H366.7l-16.255-21.5,16.255-21.5H349.215Z"/>
  <path id="star" class="cls-1" d="M69.025,29.657H44.85q-8.467,0-10.063,7.982t9.081,17.514q6.473,4.945-2.209,4.706H32.333V72.667H55.895q9.572-1.548,9.756-9.531T55.895,46.694q-5.553-4.468,2.332-4.23h10.8V29.657Zm-1.55,0V42.465H81.526v30.2H95.945v-30.2H110V29.657H67.475Zm56.28,43.01,2.791-7.744h13.162l2.791,7.744H159.25l-14.818-43.01h-22l-14.572,43.01h15.892Zm15.584-16.441h-12.21l6.351-17.037Zm35.94,16.441V58.459L189.33,72.667h17.487V59.859H193.563l-3.313-4.11a21.035,21.035,0,0,0,7.915-3.276,11.051,11.051,0,0,0,3.866-5.183q1.1-3.1-.123-8.816a13.244,13.244,0,0,0-5.031-6.076,18.793,18.793,0,0,0-8.774-2.74H159.265v43.01h16.014ZM186.415,40.38a3.38,3.38,0,0,1,1.826.789q1.088,0.789,1.242,3.261-0.061,2.591-1.1,3.232a3.747,3.747,0,0,1-1.933.64H175.279V40.38h11.136Z"/>
</svg>
